<?xml version="1.0" encoding="UTF-8" standalone="no"?>
<!-- Created with Inkscape (http://www.inkscape.org/) -->

<svg
   width="155.04584mm"
   height="79.904167mm"
   viewBox="0 0 155.04584 79.904167"
   version="1.1"
   id="svg5"
   sodipodi:docname="drawing.svg"
   inkscape:version="1.1.2 (0a00cf5339, 2022-02-04)"
   xmlns:inkscape="http://www.inkscape.org/namespaces/inkscape"
   xmlns:sodipodi="http://sodipodi.sourceforge.net/DTD/sodipodi-0.dtd"
   xmlns="http://www.w3.org/2000/svg"
   xmlns:svg="http://www.w3.org/2000/svg">
  <sodipodi:namedview
     id="namedview7"
     pagecolor="#ffffff"
     bordercolor="#666666"
     borderopacity="1.0"
     inkscape:pageshadow="2"
     inkscape:pageopacity="0.0"
     inkscape:pagecheckerboard="0"
     inkscape:document-units="mm"
     showgrid="false"
     inkscape:zoom="2.1266375"
     inkscape:cx="331.03902"
     inkscape:cy="115.20534"
     inkscape:window-width="2560"
     inkscape:window-height="1403"
     inkscape:window-x="1920"
     inkscape:window-y="0"
     inkscape:window-maximized="1"
     inkscape:current-layer="layer1" />
  <defs
     id="defs2" />
  <g
     inkscape:label="Layer 1"
     inkscape:groupmode="layer"
     id="layer1"
     transform="translate(-44.5849,-47.669956)">
    <path
       style="fill:#0c0c0c;stroke-width:0.264583"
       d="m 156.60625,117.41542 c 0,-0.0933 -0.0344,-2.47976 -0.0763,-5.30323 -0.0652,-4.38519 -0.018,-5.15595 0.32375,-5.2871 0.22005,-0.0845 0.52628,0.019 0.6805,0.22994 0.24075,0.32924 0.3518,0.33128 0.78516,0.0144 0.61247,-0.44786 2.25004,-0.48087 3.16538,-0.0638 0.78361,0.35704 1.73867,2.16965 1.73033,3.28399 -0.01,1.27436 -0.91817,2.94225 -1.87143,3.4352 -0.83409,0.43133 -2.61937,0.57943 -3.13597,0.26015 -0.15001,-0.0927 -0.286,0.57717 -0.33233,1.63704 -0.0713,1.63101 -0.13249,1.80165 -0.67373,1.87852 -0.32742,0.0465 -0.59531,0.008 -0.59531,-0.0851 z m 4.38733,-4.64767 c 0.52405,-0.43492 0.95207,-2.20534 0.74485,-3.08092 -0.27555,-1.16429 -1.12847,-1.92814 -2.15299,-1.92814 -1.59739,0 -1.92086,0.35243 -1.92086,2.0929 0,2.09766 0.24114,3.147 0.75797,3.29841 0.64975,0.19035 2.14982,-0.0327 2.57103,-0.38225 z m -87.774457,1.32504 c -1.318511,-0.21487 -2.174681,-0.82558 -2.695205,-1.9225 -0.54397,-1.14634 -0.551941,-2.03546 -0.02946,-3.28594 0.553088,-1.32372 1.097071,-1.8715 2.14624,-2.16118 1.958504,-0.54077 3.796795,0.73048 3.796795,2.62563 0,0.89666 -0.07763,1.0051 -0.826823,1.15494 -0.454753,0.0909 -1.585847,0.16536 -2.513542,0.16536 -0.927695,0 -1.686719,0.0654 -1.686719,0.14543 0,0.42545 0.867648,1.72759 1.308262,1.9634 0.279968,0.14983 1.231236,0.27242 2.113928,0.27242 0.882692,0 1.603071,0.0893 1.600843,0.19844 -0.01582,0.7753 -1.402165,1.13931 -3.214319,0.844 z m 1.919878,-5.20962 c -0.284216,-1.0638 -1.318469,-1.57482 -2.335044,-1.15374 -0.650129,0.26929 -1.393547,1.209 -1.393547,1.7615 0,0.0659 0.882671,0.11984 1.961494,0.11984 h 1.961491 z m 12.367623,5.20962 c -1.318512,-0.21487 -2.174682,-0.82558 -2.695205,-1.9225 -0.54397,-1.14634 -0.551942,-2.03546 -0.02946,-3.28594 0.553088,-1.32372 1.097071,-1.8715 2.146239,-2.16118 1.958505,-0.54077 3.796795,0.73048 3.796795,2.62563 0,0.89666 -0.07763,1.0051 -0.826823,1.15494 -0.454752,0.0909 -1.585846,0.16536 -2.513541,0.16536 -0.927696,0 -1.686719,0.0654 -1.686719,0.14543 0,0.42545 0.867648,1.72759 1.308261,1.9634 0.279969,0.14983 1.231236,0.27242 2.113929,0.27242 0.882692,0 1.60307,0.0893 1.600843,0.19844 -0.01582,0.7753 -1.402165,1.13931 -3.21432,0.844 z m 1.919877,-5.20962 c -0.284215,-1.0638 -1.318469,-1.57482 -2.335043,-1.15374 -0.650129,0.26929 -1.393547,1.209 -1.393547,1.7615 0,0.0659 0.882671,0.11984 1.961494,0.11984 h 1.961491 z m 18.982209,5.221 c -1.34605,-0.23516 -2.17861,-0.84525 -2.7251,-1.99688 -1.22337,-2.57806 0.67309,-5.40362 3.62837,-5.40595 1.14712,-7.9e-4 1.25677,0.0539 1.25677,0.62797 0,0.58979 -0.0748,0.62052 -1.20176,0.4935 -1.00061,-0.11278 -1.30993,-0.0338 -1.84803,0.47169 -1.21409,1.14058 -1.09051,3.4413 0.2347,4.36952 0.31445,0.22024 1.15187,0.38633 1.94792,0.38633 1.0648,0 1.39633,0.0942 1.39633,0.39688 0,0.21828 -0.0306,0.39687 -0.0679,0.39687 -0.0373,0 -0.42429,0.0966 -0.8599,0.21472 -0.4356,0.11809 -1.22824,0.1385 -1.76141,0.0454 z m 20.94545,0.0994 c -1.94468,-0.29211 -2.47386,-0.47153 -3.20486,-1.08662 -1.01513,-0.85418 -1.80851,-2.50739 -1.81641,-3.78493 -0.009,-1.49446 1.18344,-3.59035 2.46716,-4.33556 1.30837,-0.7595 2.75264,-1.06283 3.97169,-0.83414 0.75022,0.14075 0.8704,0.26089 0.77262,0.77241 -0.1078,0.56388 -0.22111,0.59812 -1.63974,0.4955 -1.99695,-0.14444 -3.06378,0.39262 -3.74044,1.88301 -0.63376,1.3959 -0.63262,2.14335 0.005,3.54886 0.65515,1.44323 1.85655,2.18599 3.53788,2.18729 l 1.27934,10e-4 -0.0887,-1.72035 c -0.0873,-1.69358 -0.0782,-1.72033 0.59015,-1.71979 0.67214,5.3e-4 0.67886,0.0215 0.67886,2.11723 0,1.16416 -0.0674,2.12185 -0.1497,2.12818 -0.0823,0.006 -0.62595,0.10063 -1.20803,0.20953 -0.58208,0.1089 -1.23693,0.17117 -1.45521,0.13839 z m 11.98526,-0.24582 c -1.26484,-0.64484 -1.77359,-1.59411 -1.78712,-3.33453 -0.0125,-1.61136 0.42823,-2.47797 1.76974,-3.47955 1.44769,-1.08085 4.01083,-0.41906 4.79749,1.23869 1.60598,3.38436 -1.64353,7.1745 -4.78011,5.57539 z m 3.08788,-1.29561 c 1.36458,-1.45252 0.76298,-4.63748 -0.95753,-5.0693 -2.23465,-0.56086 -3.56789,2.93712 -1.91862,5.03383 0.72502,0.92171 2.02847,0.93778 2.87615,0.0355 z m -82.806474,-3.44822 v -4.89479 h 2.236509 c 2.577828,0 3.423626,0.2962 3.860997,1.35211 0.411846,0.99428 0.131237,2.00587 -0.796929,2.8729 -0.734908,0.68651 -0.740836,0.7134 -0.227944,1.0337 0.511124,0.3192 1.619068,2.5012 1.960231,3.86051 0.137761,0.54888 0.07303,0.67037 -0.3572,0.67037 -0.654121,0 -0.903132,-0.323 -1.506132,-1.95364 -0.669124,-1.80944 -1.216998,-2.2797 -2.65599,-2.2797 h -1.190625 v 2.11667 c 0,2.08139 -0.01103,2.11667 -0.661458,2.11667 h -0.661459 z m 4.547244,-1.18583 c 1.144628,-1.41356 0.181081,-2.65062 -2.06456,-2.65062 -1.411989,0 -1.478115,0.0297 -1.32653,0.59531 0.08775,0.32742 0.161163,1.11647 0.16315,1.75345 l 0.0036,1.15815 1.372243,-0.13186 c 0.998015,-0.0959 1.503102,-0.29346 1.852084,-0.72443 z m 11.948226,5.67234 c -0.241964,-0.63054 0.05262,-0.74712 1.716321,-0.67922 2.450028,0.1 2.891012,-1.04899 0.75648,-1.971 -1.647311,-0.71156 -2.29952,-1.39011 -2.29952,-2.39237 0,-1.32711 1.026467,-2.00189 2.89482,-1.90301 1.240332,0.0657 1.470805,0.15648 1.470805,0.57966 0,0.4339 -0.214844,0.50552 -1.5875,0.52917 -1.440182,0.0248 -1.595424,0.0832 -1.672884,0.62903 -0.07048,0.49667 0.137309,0.69845 1.190625,1.15617 2.493373,1.08349 3.15558,2.47205 1.817201,3.81042 -0.557858,0.55786 -0.894794,0.64944 -2.389552,0.64944 -1.324314,0 -1.777561,-0.0976 -1.896796,-0.40829 z m 14.735673,-0.1708 c -0.70757,-0.75949 -0.684773,-1.87041 0.05584,-2.72094 0.435896,-0.5006 1.03814,-0.76504 2.248958,-0.9875 1.458191,-0.26791 1.653646,-0.37538 1.653646,-0.90927 0,-0.88682 -0.886338,-1.24232 -2.689675,-1.0788 -1.358609,0.12319 -1.543658,0.0832 -1.543658,-0.33325 0,-0.55824 0.711779,-0.7909 2.434947,-0.79591 2.631258,-0.008 3.121303,0.74571 3.121303,4.79837 0,2.39219 -0.04167,2.60636 -0.507119,2.60636 -0.278913,0 -0.54928,-0.1265 -0.600813,-0.28109 -0.06614,-0.1984 -0.311195,-0.1984 -0.833025,0 -1.262605,0.48004 -2.738205,0.34841 -3.340402,-0.29797 z m 3.539927,-0.63988 c 0.282459,-0.10839 0.418515,-0.49545 0.418515,-1.19062 v -1.03003 h -1.103646 c -0.655658,0 -1.300048,0.17775 -1.5875,0.43789 -0.477649,0.43226 -0.65025,1.42419 -0.307464,1.76697 0.220496,0.2205 2.017972,0.2315 2.580095,0.0158 z m 3.725004,0.88821 c -0.0641,-0.1819 -0.149626,-1.78819 -0.190134,-3.56953 -0.05698,-2.50594 0.0061,-3.26926 0.278724,-3.37344 0.60301,-0.23041 0.79695,-0.15242 0.969,0.38966 0.16527,0.52071 0.17036,0.52063 0.74229,-0.0122 0.78215,-0.72868 2.43426,-0.6273 2.43426,0.14937 0,0.42669 -0.20495,0.54576 -1.05834,0.61485 -1.76368,0.14279 -1.98437,0.53507 -1.98437,3.5272 0,2.44185 -0.0336,2.60483 -0.53747,2.60483 -0.29561,0 -0.58989,-0.14883 -0.65396,-0.33073 z m 12.55245,0.26458 c -0.009,-0.0364 -0.0444,-2.40832 -0.0791,-5.27098 l -0.0631,-5.20484 0.60831,-0.11628 c 0.59297,-0.11336 0.60832,-0.0638 0.60832,1.96369 0,1.14398 0.0893,2.07619 0.19843,2.07156 0.10914,-0.005 0.42956,-0.18322 0.71203,-0.39688 0.84541,-0.63943 2.70689,-0.49932 3.46719,0.26098 0.61452,0.61451 0.64943,0.81364 0.64943,3.70416 v 3.05474 h -0.69545 -0.69546 l 0.12652,-2.18282 c 0.20647,-3.56198 -0.37025,-4.54475 -2.37215,-4.0423 -1.30213,0.32681 -1.39054,0.54803 -1.39054,3.47939 0,2.56934 -0.034,2.74573 -0.52917,2.74573 -0.29104,0 -0.5364,-0.0298 -0.54523,-0.0662 z m 21.5788,-0.26458 c -0.0641,-0.1819 -0.14962,-1.78819 -0.19013,-3.56953 -0.057,-2.50594 0.006,-3.26926 0.27872,-3.37344 0.60301,-0.23041 0.79695,-0.15242 0.969,0.38966 0.16527,0.52071 0.17036,0.52063 0.74229,-0.0122 0.78215,-0.72868 2.43426,-0.6273 2.43426,0.14937 0,0.42669 -0.20495,0.54576 -1.05833,0.61485 -1.76369,0.14279 -1.98438,0.53507 -1.98438,3.5272 0,2.44185 -0.0336,2.60483 -0.53747,2.60483 -0.29561,0 -0.58989,-0.14883 -0.65396,-0.33073 z m 14.8535,-0.007 c -0.62736,-0.45874 -0.9482,-2.01069 -0.95576,-4.62313 -0.006,-2.15363 0.003,-2.18281 0.65515,-2.18281 0.65486,0 0.6615,0.0231 0.66536,2.31511 0.005,2.89807 0.31911,3.60872 1.64463,3.71947 0.53619,0.0448 1.22556,-0.0527 1.53193,-0.21667 0.52053,-0.27858 0.5516,-0.47897 0.47422,-3.05857 l -0.0828,-2.76045 0.66146,5.3e-4 0.66146,5.3e-4 0.0423,3.57179 c 0.04,3.37388 0.0138,3.57178 -0.47133,3.57178 -0.28249,0 -0.5815,-0.17688 -0.66446,-0.39307 -0.13342,-0.34771 -0.2156,-0.34771 -0.71202,0 -0.68786,0.48179 -2.82011,0.51595 -3.45013,0.0553 z M 61.620826,93.74786 v -8.478755 l 2.71198,-0.04968 c 4.29227,-0.07862 5.52267,0.0458 6.989044,0.706773 1.598315,0.720447 2.220028,1.54336 2.404852,3.18312 0.407763,3.617661 -2.242169,6.132288 -6.77117,6.425433 l -1.941337,0.125656 0.0836,3.204875 0.0836,3.204858 -1.780286,0.0782 -1.780287,0.0782 z m 7.406127,-1.069295 c 1.6602,-0.846971 1.973086,-3.004325 0.620073,-4.275412 -0.532634,-0.500386 -1.00998,-0.630024 -2.618984,-0.711274 l -1.967632,-0.09936 v 2.807044 2.807044 h 1.465749 c 0.942567,0 1.835196,-0.188479 2.500794,-0.52804 z m 7.057764,9.347485 c -0.09701,-0.097 -0.17639,-2.954518 -0.17639,-6.350002 v -6.17361 l 2.050521,-0.04343 c 5.548598,-0.117523 6.945313,0.520263 6.945313,3.17147 0,0.954503 -0.151239,1.308952 -0.859896,2.015273 -0.472943,0.471382 -1.03849,0.91957 -1.256771,0.995971 -0.30462,0.106622 -0.218112,0.282303 0.372166,0.755777 0.760867,0.610312 2.802834,4.540571 2.802834,5.394731 0,0.36079 -0.23826,0.42378 -1.35359,0.35789 l -1.35359,-0.08 -0.614759,-1.70137 c -0.914022,-2.529579 -1.382739,-3.045149 -2.856246,-3.141746 l -1.230149,-0.08064 v 2.528038 2.528038 h -1.146527 c -0.630592,0 -1.225904,-0.0794 -1.322916,-0.17639 z m 5.842881,-7.651262 c 0.73673,-0.827334 0.762421,-1.794825 0.06615,-2.4911 C 81.59286,91.482805 81.1118,91.354522 80.009369,91.354522 H 78.55416 v 2.018461 2.018461 l 1.389063,-0.174067 c 1.012505,-0.126878 1.550445,-0.355295 1.984375,-0.842589 z m 6.063369,7.651262 c -0.09701,-0.097 -0.17639,-2.954518 -0.17639,-6.350002 v -6.17361 h 3.968751 3.96875 l -0.004,0.727604 c -0.0076,1.370275 -0.231767,1.468459 -2.874743,1.259274 l -2.412876,-0.190971 v 1.615588 1.615589 h 2.116667 2.116666 v 1.050051 1.050052 l -2.116666,-0.163226 -2.116667,-0.163225 v 1.920178 1.920178 l 2.775204,-0.095 c 1.52636,-0.0523 2.776517,-0.006 2.778125,0.10342 0.0016,0.10914 0.0029,0.61515 0.0029,1.12447 v 0.92605 h -3.924689 c -2.158561,0 -4.00403,-0.0794 -4.101042,-0.17639 z m 13.317363,0.11804 c 0,-0.048 -0.9525,-2.871858 -2.116669,-6.275174 -1.164166,-3.403314 -2.116666,-6.228035 -2.116666,-6.27716 0,-0.04913 0.684609,-0.08802 1.521354,-0.08644 l 1.521351,0.0029 1.32292,4.756745 c 0.7276,2.616208 1.38245,4.756551 1.45521,4.756301 0.1377,-5.3e-4 1.61978,-4.991844 2.33539,-7.865155 l 0.41185,-1.653646 h 1.27221 c 0.97398,0 1.27222,0.09636 1.27222,0.411057 0,0.226078 -0.87771,2.696625 -1.95046,5.490104 -1.07275,2.79348 -2.06432,5.436238 -2.20349,5.872798 -0.22759,0.7139 -0.3774,0.80186 -1.48913,0.87439 -0.67985,0.0444 -1.23609,0.0413 -1.23609,-0.007 z m 8.64306,-0.11804 c -0.097,-0.097 -0.17639,-2.954518 -0.17639,-6.350002 v -6.17361 h 3.96875 3.96875 l -0.004,0.727604 c -0.008,1.370275 -0.23177,1.468459 -2.87474,1.259274 l -2.41288,-0.190971 v 1.615588 1.615589 h 2.11667 2.11666 v 1.050051 1.050052 l -2.11666,-0.163226 -2.11667,-0.163225 v 1.920178 1.920178 l 2.7752,-0.095 c 1.52636,-0.0523 2.77652,-0.006 2.77813,0.10342 0.002,0.10914 0.003,0.61515 0.003,1.12447 v 0.92605 h -3.92465 c -2.15856,0 -4.00403,-0.0794 -4.10104,-0.17639 z m 10.58599,-0.022 c -0.0642,-0.10914 -0.11271,-2.966638 -0.10777,-6.350001 l 0.009,-6.151563 h 1.40828 c 1.29402,0 1.44125,0.06376 1.81467,0.785889 0.22352,0.43224 1.16146,1.950286 2.08431,3.373438 0.92284,1.423151 1.93798,3.063798 2.25586,3.645881 l 0.57796,1.058338 -0.16546,-4.431775 -0.16547,-4.431771 h 1.21417 1.21416 v 6.35 6.349994 h -1.02301 c -1.02162,0 -1.02641,-0.005 -3.5481,-3.770308 -1.38881,-2.07367 -2.76504,-4.246561 -3.0583,-4.828644 l -0.5332,-1.058334 0.1535,4.828646 0.1535,4.82864 h -1.08367 c -0.59601,0 -1.1362,-0.0893 -1.20042,-0.19843 z m 28.83076,-0.005 c -0.0691,-0.11176 0.64876,-2.225118 1.59519,-4.696348 0.94643,-2.47123 2.33537,-6.187562 3.08654,-8.258519 l 1.36575,-3.765378 2.38125,0.0024 2.38125,0.0024 1.23138,3.762955 c 0.67725,2.069624 1.89764,5.704885 2.71198,8.078356 0.81433,2.373466 1.4806,4.491834 1.4806,4.707484 0,0.31931 -0.3806,0.37774 -2.05052,0.31481 -1.96406,-0.074 -2.05407,-0.10517 -2.13476,-0.73874 -0.0463,-0.3638 -0.32041,-1.468968 -0.60906,-2.455928 l -0.52482,-1.794476 -2.96281,0.07468 -2.96282,0.07475 -0.66146,2.446946 -0.66146,2.446948 -1.77032,5.3e-4 c -0.97368,2.4e-4 -1.82684,-0.091 -1.89591,-0.20276 z m 10.14852,-7.474611 c 0,-0.220223 -1.50472,-5.133707 -2.02418,-6.609691 -0.13456,-0.382352 -0.34406,0.182184 -1.79192,4.828646 l -0.63895,2.050521 h 2.22753 c 1.33558,0 2.22752,-0.107903 2.22752,-0.269476 z m 8.20209,-0.770702 v -8.448511 l 2.57969,-0.0843 c 6.53902,-0.213688 9.20192,0.888444 10.85131,4.491185 0.71834,1.569054 0.87592,4.148373 0.36705,6.007847 -0.44819,1.637784 -1.90628,3.857504 -3.16025,4.811032 -1.70738,1.29831 -3.32441,1.67126 -7.24624,1.67126 h -3.39156 z m 7.22741,5.419345 c 1.92342,-0.68598 3.05659,-2.373837 3.2824,-4.889181 0.17217,-1.917697 -0.27291,-3.496783 -1.32254,-4.692247 -1.09674,-1.24912 -2.17264,-1.676887 -4.21784,-1.676983 l -1.66214,-7.6e-5 0.0934,5.622472 c 0.0639,3.846386 0.18925,5.683875 0.39687,5.816855 0.48262,0.30912 2.32903,0.21177 3.42986,-0.18084 z m -42.25455,1.994578 c 0.50536,-0.35956 1.36015,-1.375198 1.89954,-2.256978 l 0.98072,-1.603225 -0.0654,-3.042709 c -0.036,-1.673489 0.0437,-3.638021 0.17693,-4.365625 0.66532,-3.632324 -1.8475,-7.36746 -5.71233,-8.490995 -1.24763,-0.362696 -1.56237,-0.59337 -2.21609,-1.624171 -0.41906,-0.660792 -0.79972,-1.314805 -0.8459,-1.453364 -0.0462,-0.13856 -0.65868,-0.359294 -1.36109,-0.490517 -0.78349,-0.146373 -1.61684,-0.536879 -2.15607,-1.010324 l -0.87896,-0.771734 -1.62766,0.410008 c -1.23563,0.311259 -1.84409,0.343588 -2.52622,0.134237 -0.60658,-0.186164 -1.26599,-0.190582 -2.02935,-0.0136 -1.40085,0.324792 -3.9831,0.114605 -5.28319,-0.43004 -0.53757,-0.2252 -1.19242,-0.339876 -1.45521,-0.254834 -0.35312,0.114269 -0.38571,0.08867 -0.1249,-0.0981 0.28698,-0.205505 0.27462,-0.282768 -0.0661,-0.413531 -0.23049,-0.08844 -0.59766,-0.09228 -0.81594,-0.0085 -0.22015,0.08448 -0.39687,0.0075 -0.39687,-0.172993 0,-0.254365 -0.0838,-0.255773 -0.38418,-0.0065 -0.40835,0.338924 -1.46791,0.142679 -1.46791,-0.271856 0,-0.135713 -0.17268,-0.246754 -0.38373,-0.246754 -0.21105,0 -0.47894,-0.151685 -0.59531,-0.337081 -0.11637,-0.185394 -0.539,-0.545325 -0.93919,-0.799849 -0.9134,-0.580943 -0.9084,-0.712068 0.0661,-1.731837 0.43656,-0.45682 0.79375,-1.073528 0.79375,-1.370462 0,-0.655663 0.24414,-0.752562 2.14233,-0.850286 1.21217,-0.06241 1.64764,-0.222668 2.40002,-0.883271 0.50554,-0.443868 0.99627,-1.007979 1.09052,-1.253581 0.0942,-0.245602 0.39933,-0.446549 0.67797,-0.446549 0.28367,0 0.56735,-0.232281 0.64464,-0.527832 0.18997,-0.726437 0.88736,-0.935165 1.68975,-0.505739 0.60807,0.325433 0.71742,0.3036 1.14904,-0.229427 0.50191,-0.61984 1.17494,-0.770405 1.45052,-0.324502 0.39059,0.631988 1.71979,-0.03744 1.71979,-0.866136 0,-0.497203 0.85332,-1.250531 1.41651,-1.250531 0.28601,0 0.50582,-0.285076 0.60599,-0.78592 0.21296,-1.064797 1.01295,-1.289508 1.83647,-0.51585 0.50397,0.473452 0.63895,0.512197 0.63895,0.1834 0,-0.637121 1.71935,-1.540781 2.59743,-1.365165 0.49593,0.09918 0.85423,0.0097 1.08781,-0.271782 0.46303,-0.557922 1.3133,-0.534015 1.54132,0.04334 0.14365,0.363716 0.21363,0.292784 0.32626,-0.330729 0.12048,-0.666981 0.268,-0.795329 0.9237,-0.803638 0.60651,-0.0077 0.81514,-0.15503 0.9366,-0.661458 0.13303,-0.554683 0.3115,-0.652307 1.20022,-0.656524 0.57417,-0.0027 1.16301,-0.07829 1.30854,-0.167917 0.14552,-0.08963 0.76127,-0.245119 1.36833,-0.345531 0.60707,-0.100411 1.16887,-0.35227 1.24847,-0.559687 0.23753,-0.618996 1.12969,-0.430324 2.06322,0.436329 0.7614,0.706853 1.02452,0.797684 2.0079,0.693148 0.93335,-0.09922 1.20252,-0.02153 1.53598,0.443322 l 0.4043,0.563622 0.59063,-0.727604 c 0.69748,-0.859237 1.13474,-0.910076 1.87661,-0.218188 0.46166,0.430548 0.73056,0.474421 1.73685,0.283381 0.65484,-0.124319 1.36922,-0.292774 1.5875,-0.374345 0.4685,-0.175076 0.81783,0.0465 1.21742,0.772173 0.19133,0.347467 0.62287,0.557363 1.25677,0.611284 0.53096,0.04516 0.96539,0.193993 0.96539,0.330729 0,0.136737 0.19899,0.248612 0.44219,0.248612 0.2432,0 0.63805,0.177255 0.87744,0.3939 0.23939,0.216644 0.90361,0.555402 1.47604,0.752794 0.88596,0.305504 1.06047,0.49291 1.17308,1.259747 0.2094,1.425936 0.9768,2.355363 1.94866,2.360111 0.94037,0.0046 1.23466,0.168877 1.65157,0.92199 0.16112,0.291041 0.51831,0.571744 0.79375,0.623784 0.72654,0.137263 1.16227,0.560301 1.16227,1.128404 0,0.546494 0.52518,0.659506 0.9749,0.209786 0.45354,-0.453536 1.51327,-0.16772 1.79982,0.485422 0.196,0.446759 0.49311,0.601 1.19063,0.618105 2.43389,0.05969 2.72712,0.120831 3.01569,0.628848 0.16225,0.285641 0.66939,0.896416 1.12698,1.357275 0.45759,0.46086 0.91225,1.120122 1.01035,1.465026 0.0981,0.344906 0.37415,1.010846 0.61342,1.479868 0.42807,0.839123 0.42276,0.865587 -0.33225,1.653646 -0.82271,0.858726 -1.4108,0.998979 -1.97136,0.470148 -0.28046,-0.264583 -0.37483,-0.264583 -0.47184,0 -0.0667,0.181901 -0.24315,0.330729 -0.39211,0.330729 -0.14896,0 -0.20231,-0.178593 -0.11855,-0.396875 0.0838,-0.218281 0.007,-0.407392 -0.17013,-0.420248 -0.17733,-0.01286 -0.9073,-0.0679 -1.62215,-0.122335 -1.24056,-0.09446 -1.431,0.221469 -0.28777,0.477382 0.29104,0.06515 -0.62301,0.05973 -2.03122,-0.01204 -2.52132,-0.128506 -2.57942,-0.117885 -3.80834,0.696121 -0.68638,0.454642 -1.67734,0.907018 -2.20212,1.005284 -0.52479,0.09826 -1.33729,0.338574 -1.80555,0.53402 -0.46827,0.195447 -1.63357,0.355356 -2.58956,0.355356 -1.70762,0 -1.75814,0.02056 -2.87498,1.169699 -0.62525,0.643335 -1.34512,1.715122 -1.5997,2.38175 -0.51501,1.348515 -0.53413,1.357035 -3.58902,1.598716 -2.81756,0.222904 -3.65165,0.709097 -4.73656,2.760946 -0.76008,1.43751 -0.91494,2.037233 -1.02478,3.96875 -0.0913,1.605012 -0.003,2.768819 0.30006,3.950364 0.23621,0.921258 0.43014,2.230945 0.43095,2.910416 0.002,1.678509 0.41735,3.048027 1.21012,3.990187 l 0.66209,0.78685 -4.49003,-0.043 -4.49003,-0.043 z m 3.01255,-19.082244 c 0,-1.571569 -0.54222,-3.005002 -1.45759,-3.853341 -0.37422,-0.346818 -0.65907,-0.905822 -0.65907,-1.2934 0,-0.901623 -0.5974,-2.279475 -1.22026,-2.814412 -0.27474,-0.235966 -1.13215,-0.634992 -1.90535,-0.886722 -0.97249,-0.316619 -1.47625,-0.642978 -1.63435,-1.058802 -0.12569,-0.330608 -0.51446,-0.672869 -0.86393,-0.76058 -0.34947,-0.08771 -0.77231,-0.459984 -0.93966,-0.827275 -0.17487,-0.383785 -0.5251,-0.667803 -0.8235,-0.667803 -0.28557,0 -0.58417,-0.105093 -0.66356,-0.233539 -0.0794,-0.128447 0.23579,-0.203637 0.70039,-0.167089 0.4646,0.03655 0.88988,0.201914 0.94507,0.36748 0.15124,0.45373 0.58431,0.07453 0.58431,-0.511633 0,-0.282454 0.11907,-0.513552 0.26459,-0.513552 0.14552,0 0.26458,-0.10418 0.26458,-0.23151 0,-0.365103 -1.35026,-0.269687 -1.49427,0.105592 -0.0727,0.189475 -0.52343,0.325931 -1.02922,0.311594 -1.11428,-0.03158 -1.38755,0.216063 -0.97222,0.8811 0.40561,0.649499 0.40955,1.623767 0.0101,2.50049 -0.28192,0.618736 -0.22223,0.772724 0.6458,1.666095 0.5872,0.604342 1.2797,1.801484 1.7938,3.101014 1.03765,2.622939 1.54259,3.18335 3.33872,3.7055 0.78132,0.227135 2.15137,0.885301 3.04455,1.462591 0.89318,0.577289 1.72456,1.049617 1.84752,1.049617 0.12296,0 0.22357,-0.599135 0.22357,-1.331415 z m 5.12383,-2.850261 c 0.3971,-0.490553 0.46831,-0.910145 0.3642,-2.145636 -0.10815,-1.283231 -0.33435,-1.835687 -1.37532,-3.358948 -0.68524,-1.002713 -1.5635,-1.985424 -1.95169,-2.183802 -0.38819,-0.198378 -0.9015,-0.607323 -1.14068,-0.908766 -0.41504,-0.523075 -0.46592,-0.527743 -1.11517,-0.102334 -0.97365,0.63796 -1.13721,1.094432 -1.309,3.653335 -0.15116,2.251667 -0.14154,2.299607 0.73522,3.66047 0.48862,0.758407 1.15766,2.200288 1.48678,3.204176 l 0.59839,1.825252 1.60682,-1.516973 c 0.88376,-0.834334 1.82896,-1.791382 2.10045,-2.126774 z m 2.82651,2.319311 c 3.26213,-0.638614 3.19639,-0.607972 4.41644,-2.05859 1.88915,-2.246167 2.10773,-3.301643 0.99587,-4.808691 -0.81133,-1.099691 -1.13934,-1.316884 -1.98556,-1.314741 -0.68739,0.0019 -0.77639,0.125947 -2.19707,3.066407 -0.4519,0.935328 -1.04159,1.622147 -1.89961,2.212475 -1.10815,0.762428 -2.78249,2.88218 -2.78249,3.522697 0,0.132598 0.20836,0.158726 0.46302,0.05806 0.25466,-0.100666 1.59989,-0.405593 2.9894,-0.677614 z m 1.23446,-6.19475 c 0.761,-1.50535 0.8747,-1.927752 0.62608,-2.325865 -0.16709,-0.267554 -0.22366,-0.616127 -0.12572,-0.774607 0.10579,-0.171166 0.0289,-0.234175 -0.18947,-0.155206 -0.20216,0.07312 -0.62664,-0.102504 -0.94329,-0.39027 -0.60011,-0.545373 -1.14406,-0.445858 -1.14406,0.209303 0,0.464194 0.31342,0.491171 0.74083,0.06376 0.19247,-0.192469 0.3175,-0.209193 0.3175,-0.04247 0,0.151267 -0.29766,0.41065 -0.66146,0.576412 -0.3638,0.165759 -0.66146,0.435573 -0.66146,0.599588 0,0.164013 -0.28368,0.635341 -0.6304,1.047395 -0.56566,0.672251 -0.60632,0.879965 -0.39596,2.022571 0.37234,2.022435 0.38116,2.032415 1.31527,1.488008 0.54293,-0.316417 1.13815,-1.104079 1.75214,-2.318619 z m -18.44521,1.658358 c 0,-0.172336 -0.23806,-0.805095 -0.52901,-1.406128 -0.55788,-1.152419 -1.56016,-1.806652 -3.25485,-2.124578 -0.5097,-0.09562 -1.24643,-0.507547 -1.63717,-0.915395 -0.66118,-0.690117 -0.7593,-0.716046 -1.41502,-0.373927 -0.38752,0.202184 -0.85567,0.368342 -1.04035,0.369239 -0.23208,0.0011 -0.28186,0.226327 -0.16122,0.729234 0.21624,0.901353 0.2609,0.955275 0.61168,0.738484 0.1552,-0.09592 0.28219,-0.405501 0.28219,-0.687954 0,-0.282453 0.11906,-0.513551 0.26458,-0.513551 0.48844,0 0.27066,0.811726 -0.39688,1.479262 -1.39799,1.397992 -0.34142,2.038911 2.09507,1.270875 l 1.48716,-0.468788 0.72243,0.864118 c 0.4226,0.505482 1.10676,0.954212 1.64847,1.081199 1.30708,0.306406 1.32292,0.305903 1.32292,-0.04209 z m 30.08432,-0.336997 c 1.7571,-0.635556 2.98859,-1.629048 2.98859,-2.41101 0,-0.603023 -1.7175,-2.344725 -2.08697,-2.11638 -0.24511,0.151491 -0.24749,0.285092 -0.0101,0.571075 0.43417,0.523142 -0.1,1.108546 -1.19977,1.314866 -0.49604,0.09306 -1.23292,0.55455 -1.73442,1.086239 -0.47957,0.508441 -1.15107,1.107321 -1.4922,1.330841 -0.34114,0.22352 -0.62024,0.51177 -0.62024,0.640553 0,0.461513 2.39059,0.222068 4.15515,-0.416184 z M 115.46354,76.25718 c 1.83793,-0.48197 1.79562,-0.443235 1.2712,-1.163645 -0.2626,-0.360749 -0.71558,-0.661472 -1.00662,-0.668274 -0.40514,-0.0095 -0.4437,-0.0665 -0.16454,-0.243317 0.20055,-0.127023 0.27792,-0.371244 0.17194,-0.542718 -0.1332,-0.215535 -0.41688,-0.08757 -0.91902,0.414578 -0.39949,0.399489 -1.07003,0.772369 -1.49008,0.828622 -0.88866,0.119007 -0.7918,0.04369 -1.02284,0.795343 -0.15686,0.510294 -0.086,0.595312 0.49629,0.595312 0.41506,0 0.67929,-0.148304 0.67929,-0.381259 0,-0.209693 0.12875,-0.460833 0.28612,-0.558088 0.17079,-0.105556 0.26515,0.02146 0.23411,0.315113 -0.10773,1.019181 -0.10573,1.020011 1.46415,0.608333 z m 37.8693,-0.68934 c 0.92564,-0.706022 1.31343,-1.473004 1.00065,-1.979105 -0.12301,-0.199027 -0.0744,-0.236243 0.13746,-0.105293 0.23235,0.143602 0.30174,0.02077 0.23846,-0.42214 -0.067,-0.468892 -0.2375,-0.60896 -0.6837,-0.561652 -0.32696,0.03467 -0.59446,-0.04075 -0.59446,-0.16758 0,-0.126832 -0.23969,-0.293283 -0.53263,-0.36989 -0.61921,-0.161926 -1.29041,0.731774 -0.72203,0.961377 0.18074,0.07301 0.0529,0.142147 -0.28409,0.153636 -0.67505,0.02302 -1.67249,0.481883 -1.94012,0.892545 -0.0944,0.144799 0.0235,0.789702 0.262,1.433118 0.42036,1.134179 0.46123,1.164664 1.34032,0.999747 0.4987,-0.09356 1.29886,-0.469202 1.77814,-0.834763 z m -41.44118,0.204383 c 0,-0.293442 -0.81397,-0.625452 -1.02239,-0.417026 -0.0841,0.0841 0.0222,0.263673 0.23631,0.399052 0.49473,0.312881 0.78608,0.31954 0.78608,0.01797 z m 49.74167,-0.806443 c 0,-0.735494 -0.54905,-0.972801 -0.9577,-0.413932 -0.42007,0.574479 -0.25103,0.927483 0.44415,0.927483 0.33196,0 0.51355,-0.181594 0.51355,-0.513551 z m 1.05834,0.248968 c 0,-0.145521 -0.18563,-0.264583 -0.4125,-0.264583 -0.22687,0 -0.3389,0.119062 -0.24896,0.264583 0.0899,0.145521 0.27555,0.264583 0.41249,0.264583 0.13693,0 0.24897,-0.119062 0.24897,-0.264583 z m -44.56113,-0.945616 c 0.28868,-1.538822 -0.68543,-1.985322 -1.06158,-0.486595 -0.1663,0.662575 0.19053,1.432401 0.66394,1.432401 0.12111,0 0.30005,-0.425611 0.39764,-0.945806 z m 42.27718,-0.178673 c 0.10443,-0.390959 0.008,-0.707903 -0.28056,-0.923309 -0.55566,-0.414612 -0.57551,-0.383249 -0.41681,0.658726 0.15204,0.99828 0.46923,1.118626 0.69737,0.264583 z M 133.84416,71.3865 c 0.29079,-0.352342 -0.27538,-1.993232 -1.00994,-2.927077 -0.3133,-0.398299 -0.56964,-0.946249 -0.56964,-1.217666 0,-0.625203 -0.51856,-0.65342 -0.55986,-0.03046 -0.0265,0.400096 -0.0463,0.404337 -0.14568,0.03121 -0.0955,-0.358642 -0.22445,-0.381058 -0.76099,-0.132291 -0.50759,0.235342 -0.64441,0.497933 -0.63856,1.225558 l 0.007,0.926042 0.65063,-0.79375 c 0.85112,-1.038344 0.8464,-0.474027 -0.006,0.688477 -0.90339,1.232402 -1.42714,2.390445 -1.26832,2.80434 0.0729,0.19004 0.77799,0.533149 1.5668,0.762461 0.97621,0.283792 1.57961,0.64004 1.88956,1.1156 l 0.45536,0.698664 0.082,-1.439249 c 0.0451,-0.791588 0.18323,-1.561923 0.30697,-1.711856 z m 8.22539,2.240938 c 0.61486,-1.209744 0.99003,-2.252824 0.87639,-2.436689 -0.18427,-0.298161 -1.09431,-0.259011 -1.28865,0.05544 -0.0899,0.145521 -0.003,0.264583 0.19266,0.264583 0.19591,0 0.37304,0.267891 0.39363,0.595313 l 0.0375,0.595312 -0.44416,-0.611395 c -0.24429,-0.336268 -0.69221,-0.920495 -0.99538,-1.298284 l -0.55122,-0.686887 v 0.844082 c 0,0.464245 -0.13328,0.977371 -0.29619,1.14028 -0.21855,0.218544 -0.27066,-0.04692 -0.19876,-1.012533 0.0808,-1.085604 0.0205,-1.314529 -0.3539,-1.342731 -0.26192,-0.01973 -0.59272,0.285404 -0.78822,0.72707 -0.29905,0.675609 -0.27084,0.850384 0.2512,1.55649 0.32345,0.437481 0.68905,0.733018 0.81246,0.656749 0.12341,-0.07627 0.30155,0.07723 0.39587,0.341119 0.41993,1.174832 1.4992,1.512425 1.95682,0.612082 z m -25.20059,-0.1954 c -0.0487,-0.252989 -0.30545,-0.501748 -0.57052,-0.552794 -0.41274,-0.07949 -0.43946,-0.01344 -0.18609,0.459983 0.35815,0.669203 0.87994,0.733209 0.75661,0.09281 z m 32.85274,-0.587809 c 0.60003,-1.176157 0.63526,-1.333458 0.29865,-1.333458 -0.12975,0 -0.31061,0.297657 -0.40192,0.661459 -0.0913,0.363802 -0.34234,0.661458 -0.55785,0.661458 -0.39876,0 -0.53591,0.561472 -0.21544,0.881944 0.275,0.275 0.30891,0.241284 0.87656,-0.871403 z m 6.8184,0.616445 c 0.62291,-0.166934 0.79585,-0.736402 0.31406,-1.034164 -0.29031,-0.179425 -1.30625,0.58071 -1.30625,0.977353 0,0.262556 0.18494,0.273147 0.99219,0.05681 z m -32.13624,-1.283769 c 0.468,-0.981417 0.37871,-1.533559 -0.36891,-2.281184 -0.44341,-0.443409 -0.484,-0.435618 -0.88011,0.168917 -0.22839,0.348571 -0.41526,1.173736 -0.41526,1.8337 0,1.077937 0.0623,1.199933 0.61245,1.199933 0.43886,0 0.737,-0.261162 1.05183,-0.921366 z m 24.0003,0.552799 c 0,-0.397293 -0.64222,-0.753097 -0.89788,-0.497442 -0.18658,0.186589 0.33568,0.866009 0.6657,0.866009 0.1277,0 0.23218,-0.165856 0.23218,-0.368567 z m 3.07245,-0.301149 c 0.48925,-0.746684 0.47866,-0.777103 -0.36047,-1.035036 -0.47892,-0.147214 -0.59531,-0.08028 -0.59531,0.342367 0,0.288946 -0.0723,0.713688 -0.1606,0.94387 -0.26612,0.693497 0.62943,0.491988 1.11638,-0.251201 z m -29.17219,-0.190179 c 0.10211,-0.390376 -0.0153,-0.766341 -0.34101,-1.092124 -0.42425,-0.424315 -0.5539,-0.44362 -0.88847,-0.132292 -0.34465,0.320709 -0.32959,0.451968 0.1253,1.092124 0.6277,0.883335 0.89921,0.915866 1.10418,0.132292 z m 24.77683,0.346344 c 0,-0.136932 -0.12477,-0.326077 -0.27726,-0.420321 -0.38833,-0.240002 -1.11421,0.07974 -0.91452,0.402838 0.20811,0.33673 1.19178,0.35116 1.19178,0.01749 z m 12.37478,-0.230589 c 0.0576,-0.172806 -0.0838,-0.314193 -0.31419,-0.314193 -0.23041,0 -0.41893,0.188516 -0.41893,0.418923 0,0.467235 0.56959,0.385866 0.73312,-0.10473 z M 122.60067,69.9275 c 0.14189,0.0195 0.30064,-0.09253 0.35278,-0.248968 0.13033,-0.390987 -0.24723,-0.342512 -0.84237,0.108151 -0.3401,0.257539 -0.43269,0.525412 -0.29431,0.851481 0.18051,0.425339 0.21906,0.411018 0.36392,-0.135195 0.0891,-0.33601 0.2781,-0.594971 0.41998,-0.575469 z m 6.89092,0.34768 c 0.38003,-0.580007 0.40479,-0.79942 0.13833,-1.226084 -0.25155,-0.402802 -0.2532,-0.563746 -0.007,-0.715711 0.19145,-0.118318 0.0628,-0.196051 -0.32449,-0.196051 -0.52808,0 -0.70145,0.202329 -0.9791,1.142673 -0.51224,1.734845 0.25902,2.389422 1.17257,0.995173 z m 8.68211,-0.596289 c -0.0293,-0.602665 0.0323,-0.782335 0.18405,-0.536829 0.29771,0.481712 0.63604,0.138643 0.41958,-0.425456 -0.0925,-0.241094 -0.33613,-0.370915 -0.54537,-0.290624 -0.24359,0.09347 -0.41454,-0.06153 -0.48038,-0.43557 -0.0989,-0.56175 -0.10884,-0.56343 -0.30507,-0.05152 -0.11155,0.291042 -0.32362,0.78287 -0.47126,1.092952 -0.39746,0.83479 -0.0289,1.734 0.66987,1.634452 0.47028,-0.067 0.56472,-0.243422 0.52858,-0.987409 z m -1.69657,-0.921197 c 0.4137,-0.498478 0.14465,-1.395346 -0.5263,-1.754429 -0.39214,-0.209868 -0.51125,-0.187295 -0.51125,0.09689 0,0.203776 -0.23812,0.67323 -0.52917,1.043229 -0.52162,0.663135 -0.68985,1.531007 -0.36059,1.860264 0.18186,0.181857 1.39114,-0.599913 1.92731,-1.245954 z m -1.93459,-0.847395 c 0.21938,-0.525052 0.34941,-1.004104 0.28895,-1.064561 -0.16693,-0.166936 -0.97941,0.194117 -0.97941,0.435237 0,0.116329 -0.23812,0.149235 -0.52917,0.07313 -0.37801,-0.09885 -0.52916,-0.0081 -0.52916,0.317661 0,0.303451 0.13739,0.403319 0.41061,0.298472 0.23546,-0.09035 0.34167,-0.046 0.24897,0.103985 -0.19461,0.314892 0.0629,0.790719 0.42787,0.790719 0.14435,0 0.44196,-0.429588 0.66134,-0.954639 z m 2.68294,-1.05182 c -0.25213,-0.252137 -0.75763,0.156262 -0.56973,0.460295 0.11169,0.180711 0.25968,0.176146 0.4497,-0.01387 0.15578,-0.155775 0.20979,-0.356665 0.12003,-0.446423 z m 5.88646,28.823829 c 6.9e-4,-1.354232 0.14311,-1.41737 3.1972,-1.41737 h 2.35961 v 1.173602 1.173602 l -2.77869,0.08317 -2.77868,0.08317 5.3e-4,-1.096172 z m 21.96098,-19.777604 c 0,-0.05719 0.17859,-0.172516 0.39687,-0.25628 0.21828,-0.08376 0.39688,-0.03697 0.39688,0.103983 0,0.140955 -0.1786,0.256281 -0.39688,0.256281 -0.21828,0 -0.39687,-0.04679 -0.39687,-0.103984 z"
       id="path67" />
  </g>
</svg>
